<svg width="44" height="45" viewBox="0 0 44 45" fill="none" xmlns="http://www.w3.org/2000/svg">
<g opacity="0.8">
<path d="M12 15.5L18.913 19.4246C21.4387 20.8585 22.5613 20.8585 25.087 19.4246L32 15.5" stroke="black" stroke-width="1.5" stroke-linejoin="round"/>
<path d="M20.5 30C20.0337 29.9939 19.5668 29.985 19.0988 29.9732C15.9503 29.8941 14.3761 29.8545 13.245 28.7184C12.1138 27.5823 12.0811 26.0487 12.0158 22.9814C11.9948 21.9951 11.9947 21.0147 12.0158 20.0284C12.0811 16.9611 12.1138 15.4275 13.245 14.2914C14.3761 13.1553 15.9503 13.1157 19.0988 13.0366C21.0393 12.9878 22.9607 12.9878 24.9012 13.0366C28.0497 13.1157 29.6239 13.1553 30.755 14.2914C31.8862 15.4275 31.9189 16.9611 31.9842 20.0284C31.9939 20.4825 31.9991 20.6965 31.9999 21" stroke="black" stroke-width="1.5" stroke-linecap="round" stroke-linejoin="round"/>
<path d="M29 27.5C29 28.3284 28.3284 29 27.5 29C26.6716 29 26 28.3284 26 27.5C26 26.6716 26.6716 26 27.5 26C28.3284 26 29 26.6716 29 27.5ZM29 27.5V28C29 28.8284 29.6716 29.5 30.5 29.5C31.3284 29.5 32 28.8284 32 28V27.5C32 25.0147 29.9853 23 27.5 23C25.0147 23 23 25.0147 23 27.5C23 29.9853 25.0147 32 27.5 32" stroke="black" stroke-width="1.5" stroke-linecap="round" stroke-linejoin="round"/>
</g>
</svg>
