<svg width="44" height="45" viewBox="0 0 44 45" fill="none" xmlns="http://www.w3.org/2000/svg">
<g opacity="0.8">
<path d="M25 22.5C25 21.3954 25.8954 20.5 27 20.5C29.2091 20.5 31 22.2909 31 24.5C31 26.7091 29.2091 28.5 27 28.5C25.8954 28.5 25 27.6046 25 26.5V22.5Z" stroke="black" stroke-width="1.5"/>
<path d="M19 22.5C19 21.3954 18.1046 20.5 17 20.5C14.7909 20.5 13 22.2909 13 24.5C13 26.7091 14.7909 28.5 17 28.5C18.1046 28.5 19 27.6046 19 26.5V22.5Z" stroke="black" stroke-width="1.5"/>
<path d="M13 24.5V21.5C13 16.5294 17.0294 12.5 22 12.5C26.9706 12.5 31 16.5294 31 21.5V26.3462C31 28.3545 31 29.3586 30.6476 30.1417C30.2465 31.0329 29.5329 31.7465 28.6417 32.1476C27.8586 32.5 26.8545 32.5 24.8462 32.5H22" stroke="black" stroke-width="1.5" stroke-linecap="round" stroke-linejoin="round"/>
</g>
</svg>
