<svg width="52" height="36" viewBox="0 0 52 36" fill="none" xmlns="http://www.w3.org/2000/svg">
<rect width="36" height="36" rx="18" fill="#F4F4F6"/>
<path d="M13.171 11.0088C13.171 12.2172 12.1914 13.1968 10.983 13.1968C9.77464 13.1968 8.79504 12.2172 8.79504 11.0088C8.79504 9.8004 9.77464 8.8208 10.983 8.8208C12.1914 8.8208 13.171 9.8004 13.171 11.0088Z" fill="#2F313F"/>
<path d="M15.237 26.9942V14.8552H18.855V16.5152H18.906C19.409 15.5622 20.639 14.5552 22.474 14.5552C26.296 14.5552 27 17.0682 27 20.3382V26.9952H23.229V21.0912C23.229 19.6842 23.205 17.8732 21.268 17.8732C19.304 17.8732 19.006 19.4072 19.006 20.9912V26.9942H15.237Z" fill="#2F313F"/>
<path d="M12.87 14.855H9.09497V26.994H12.87V14.855Z" fill="#2F313F"/>
</svg>
