<svg width="52" height="36" viewBox="0 0 52 36" fill="none" xmlns="http://www.w3.org/2000/svg">
<rect width="36" height="36" rx="18" fill="#F4F4F6"/>
<path d="M18 8C23.5228 8 28 12.4937 28 18.0367C28 23.1683 24.1636 27.3998 19.212 28V21.104H21.9172L22.4784 18.0367H19.212V16.952C19.212 15.3312 19.8456 14.7078 21.4852 14.7078C21.9425 14.7078 22.3199 14.7178 22.563 14.7379C22.5904 14.7401 22.6161 14.7425 22.64 14.7451C22.6398 14.745 22.6401 14.7451 22.64 14.7451L22.6404 11.9649C22.6106 11.9566 22.578 11.9484 22.5429 11.9401C22.0499 11.8241 21.0576 11.7156 20.466 11.7156C17.1244 11.7156 15.584 13.299 15.584 16.7151V18.0367H13.522V21.1039L15.584 21.104V27.7779C11.2286 26.693 8 22.7434 8 18.0367C8 12.4937 12.4772 8 18 8Z" fill="#2F313F"/>
</svg>
