<svg width="52" height="36" viewBox="0 0 52 36" fill="none" xmlns="http://www.w3.org/2000/svg">
<rect width="36" height="36" rx="18" fill="#F4F4F6"/>
<path d="M25.633 13.997C25.646 14.172 25.646 14.346 25.646 14.52C25.646 19.8451 21.593 25.9811 14.186 25.9811C11.904 25.9811 9.784 25.3201 8 24.1721C8.324 24.2091 8.636 24.2221 8.973 24.2221C10.786 24.2265 12.5476 23.6202 13.974 22.5011C13.1334 22.4859 12.3186 22.2085 11.6432 21.7078C10.9679 21.2071 10.4658 20.508 10.207 19.7081C10.456 19.7451 10.706 19.7701 10.968 19.7701C11.329 19.7701 11.692 19.7201 12.029 19.6331C11.1168 19.4489 10.2965 18.9544 9.70762 18.2338C9.11876 17.5131 8.79769 16.6107 8.799 15.68V15.63C9.336 15.929 9.959 16.1161 10.619 16.1411C10.0661 15.7736 9.61272 15.2751 9.29934 14.6898C8.98596 14.1046 8.82231 13.4509 8.823 12.787C8.823 12.039 9.022 11.353 9.371 10.755C10.3831 12.0001 11.6455 13.0186 13.0763 13.7447C14.5072 14.4708 16.0746 14.8883 17.677 14.97C17.615 14.67 17.577 14.359 17.577 14.047C17.5767 13.518 17.6807 12.9941 17.8831 12.5053C18.0854 12.0165 18.3821 11.5723 18.7562 11.1982C19.1303 10.8241 19.5744 10.5275 20.0632 10.3251C20.5521 10.1228 21.076 10.0188 21.605 10.019C22.765 10.019 23.812 10.505 24.548 11.291C25.4498 11.1167 26.3145 10.7875 27.104 10.318C26.8034 11.2489 26.1738 12.0382 25.333 12.538C26.1328 12.4468 26.9144 12.2365 27.652 11.914C27.1011 12.7171 26.4185 13.4214 25.633 13.997Z" fill="#2F313F"/>
</svg>
