<svg width="36" height="36" viewBox="0 0 36 36" fill="none" xmlns="http://www.w3.org/2000/svg">
<rect width="36" height="36" rx="18" fill="#F4F4F6"/>
<path d="M25.59 12.69C24.5932 12.4708 23.6914 11.9414 23.0141 11.1779C22.3368 10.4143 21.9188 9.45587 21.82 8.44V8H18.37V21.67C18.3707 22.2766 18.1806 22.868 17.8265 23.3604C17.4724 23.8529 16.9723 24.2215 16.3971 24.414C15.8219 24.6065 15.2007 24.6131 14.6215 24.4329C14.0423 24.2527 13.5345 23.8948 13.17 23.41C12.8435 22.9808 12.6435 22.4689 12.5927 21.932C12.542 21.3951 12.6425 20.8548 12.8828 20.372C13.1231 19.8892 13.4937 19.4834 13.9527 19.2003C14.4117 18.9172 14.9408 18.7681 15.48 18.77C15.7783 18.7683 16.075 18.8121 16.36 18.9V15.4C16.0284 15.3589 15.6941 15.3422 15.36 15.35C14.1293 15.3829 12.9349 15.7739 11.9231 16.4753C10.9113 17.1766 10.1259 18.1578 9.6632 19.2986C9.20049 20.4395 9.0805 21.6905 9.31794 22.8986C9.55538 24.1066 10.1399 25.2191 11 26.1C11.8815 26.9962 13.0095 27.6101 14.2407 27.8638C15.4719 28.1175 16.7507 27.9994 17.9147 27.5246C19.0786 27.0498 20.0752 26.2397 20.7777 25.1973C21.4801 24.1548 21.8569 22.9271 21.86 21.67V14.67C23.2515 15.6639 24.92 16.1956 26.63 16.19V12.79C26.2941 12.7914 25.959 12.7579 25.63 12.69H25.59Z" fill="#2F313F"/>
</svg>
