<svg width="52" height="36" viewBox="0 0 52 36" fill="none" xmlns="http://www.w3.org/2000/svg">
<rect width="36" height="36" rx="18" fill="#F4F4F6"/>
<path d="M20.9971 17.9791C20.9971 19.6376 19.6526 20.9821 17.9941 20.9821C16.3356 20.9821 14.9911 19.6376 14.9911 17.9791C14.9911 16.3206 16.3356 14.9761 17.9941 14.9761C19.6526 14.9761 20.9971 16.3206 20.9971 17.9791Z" fill="#2F313F"/>
<path fill-rule="evenodd" clip-rule="evenodd" d="M26.5281 12.089C26.7952 12.7977 26.937 13.5476 26.9471 14.305C27.0028 15.2575 27.0031 15.5691 27.005 17.9803L27.0051 18.0139C27.0051 20.4569 26.9921 20.7619 26.9491 21.7239C26.9341 22.4729 26.7931 23.2109 26.5301 23.9109C26.2982 24.5086 25.9442 25.0514 25.4909 25.5048C25.0376 25.9581 24.4948 26.312 23.8971 26.5439C23.1974 26.8065 22.4582 26.9482 21.7111 26.9629C20.7561 27.0189 20.4431 27.0189 18.0011 27.0189C15.5591 27.0189 15.2541 27.0059 14.2911 26.9629C13.5424 26.9383 12.8035 26.7861 12.1061 26.5129C11.5081 26.2815 10.9651 25.9279 10.5115 25.4747C10.058 25.0215 9.70395 24.4787 9.47207 23.8809C9.20907 23.1799 9.06807 22.4419 9.05307 21.6939C8.99707 20.7379 8.99707 20.4259 8.99707 17.9839C8.99707 15.542 9.01007 15.237 9.05307 14.274C9.06719 13.5271 9.2089 12.7881 9.47207 12.089C9.70356 11.491 10.0573 10.948 10.5107 10.4946C10.9641 10.0412 11.5071 9.68745 12.1051 9.45596C12.8044 9.19343 13.5432 9.05141 14.2901 9.03596C15.2451 8.98096 15.5581 8.98096 18.0001 8.98096C20.4421 8.98096 20.7471 8.99296 21.7091 9.03596C22.4562 9.0513 23.1954 9.19332 23.8951 9.45596C24.4929 9.68761 25.0359 10.0414 25.4892 10.4948C25.9426 10.9482 26.2964 11.4911 26.5281 12.089ZM13.3711 17.9789C13.3711 20.5329 15.4401 22.6019 17.9941 22.6019C19.2202 22.6019 20.396 22.1149 21.263 21.2479C22.13 20.3809 22.6171 19.205 22.6171 17.9789C22.6171 16.7528 22.13 15.577 21.263 14.71C20.396 13.843 19.2202 13.356 17.9941 13.356C15.4401 13.356 13.3711 15.425 13.3711 17.9789ZM22.3884 14.1812C22.5192 14.2353 22.6595 14.2631 22.8011 14.263C23.3961 14.263 23.8781 13.781 23.8781 13.185C23.8781 13.0435 23.8502 12.9033 23.7961 12.7726C23.7419 12.6419 23.6625 12.5231 23.5625 12.423C23.4624 12.323 23.3436 12.2436 23.2129 12.1895C23.0822 12.1353 22.9421 12.1075 22.8006 12.1075C22.6591 12.1075 22.519 12.1353 22.3882 12.1895C22.2575 12.2436 22.1387 12.323 22.0387 12.423C21.9386 12.5231 21.8592 12.6419 21.8051 12.7726C21.7509 12.9033 21.7231 13.0435 21.7231 13.185C21.7229 13.3266 21.7507 13.4668 21.8049 13.5976C21.859 13.7285 21.9384 13.8474 22.0385 13.9475C22.1386 14.0476 22.2575 14.127 22.3884 14.1812Z" fill="#2F313F"/>
</svg>
